<?xml version="1.0" encoding="UTF-8"?>
<svg id="Layer_1" data-name="Layer 1" xmlns="http://www.w3.org/2000/svg" viewBox="0 0 122.03 109.9">
  <defs>
    <style>
      .cls-1 {
        fill: #fc3;
      }
    </style>
  </defs>
  <path class="cls-1" d="M15.76,31.64c-4.19,0-7.86-1.58-11.02-4.74C1.58,23.74,0,20.03,0,15.76S1.58,7.81,4.74,4.68C7.9,1.56,11.57,0,15.76,0s7.88,1.56,11.08,4.68c3.2,3.12,4.8,6.82,4.8,11.08s-1.6,7.97-4.8,11.13c-3.2,3.16-6.89,4.74-11.08,4.74Zm29.43,62.39c0-4.11,1.58-7.77,4.74-10.97,3.16-3.2,6.87-4.8,11.13-4.8s7.95,1.6,11.08,4.8c3.12,3.2,4.68,6.85,4.68,10.97s-1.56,7.88-4.68,11.08c-3.12,3.2-6.82,4.8-11.08,4.8s-7.97-1.6-11.13-4.8c-3.16-3.2-4.74-6.89-4.74-11.08ZM106.15,31.64c-4.12,0-7.77-1.58-10.97-4.74-3.2-3.16-4.8-6.87-4.8-11.13s1.6-7.95,4.8-11.08c3.2-3.12,6.85-4.68,10.97-4.68s7.88,1.56,11.08,4.68c3.2,3.12,4.8,6.82,4.8,11.08s-1.6,7.97-4.8,11.13c-3.2,3.16-6.89,4.74-11.08,4.74Z"/>
</svg>