<svg width="1200" height="630" viewBox="0 0 1200 630" xmlns="http://www.w3.org/2000/svg">
  <!-- Background -->
  <rect width="1200" height="630" fill="#0a0a0a"/>

  <!-- Vreva logo centered -->
  <g transform="translate(270, 220) scale(1.2)">
    <defs>
      <style>
        .cls-1 { fill: #fff; }
        .cls-2 { fill: #fc3; }
      </style>
    </defs>
    <path class="cls-2" d="M15.76,31.64c-4.19,0-7.86-1.58-11.02-4.74C1.58,23.74,0,20.03,0,15.76S1.58,7.81,4.74,4.68C7.9,1.56,11.57,0,15.76,0s7.88,1.56,11.08,4.68c3.2,3.12,4.8,6.82,4.8,11.08s-1.6,7.97-4.8,11.13c-3.2,3.16-6.89,4.74-11.08,4.74Zm29.43,62.39c0-4.11,1.58-7.77,4.74-10.97,3.16-3.2,6.87-4.8,11.13-4.8s7.95,1.6,11.08,4.8c3.12,3.2,4.68,6.85,4.68,10.97s-1.56,7.88-4.68,11.08c-3.12,3.2-6.82,4.8-11.08,4.8s-7.97-1.6-11.13-4.8c-3.16-3.2-4.74-6.89-4.74-11.08ZM106.15,31.64c-4.12,0-7.77-1.58-10.97-4.74-3.2-3.16-4.8-6.87-4.8-11.13s1.6-7.95,4.8-11.08c3.2-3.12,6.85-4.68,10.97-4.68s7.88,1.56,11.08,4.68c3.2,3.12,4.8,6.82,4.8,11.08s-1.6,7.97-4.8,11.13c-3.2,3.16-6.89,4.74-11.08,4.74Z"/>
    <g>
      <path class="cls-1" d="M166.94,31.48h20.88l20.4,53.56h.32l20.56-53.56h19.6l-30.13,76.51h-20.4l-31.24-76.51Z"/>
      <path class="cls-1" d="M256.84,31.48h19.13v12.11h.32c2.12-4.46,5.15-7.91,9.09-10.36,3.93-2.44,8.45-3.67,13.55-3.67,1.17,0,2.31,.11,3.42,.32,1.12,.21,2.26,.48,3.43,.8v18.49c-1.6-.42-3.17-.77-4.7-1.04-1.54-.26-3.06-.4-4.54-.4-4.46,0-8.05,.82-10.76,2.47-2.71,1.65-4.78,3.53-6.22,5.66-1.43,2.13-2.39,4.25-2.87,6.38-.48,2.13-.72,3.72-.72,4.78v40.96h-19.13V31.48Z"/>
      <path class="cls-1" d="M328.56,76.43c.64,5.74,2.87,10.2,6.7,13.39,3.82,3.19,8.45,4.78,13.87,4.78,4.78,0,8.79-.98,12.04-2.95,3.24-1.97,6.08-4.44,8.52-7.41l13.71,10.36c-4.46,5.53-9.46,9.46-14.98,11.8-5.53,2.34-11.32,3.51-17.37,3.51-5.74,0-11.16-.96-16.26-2.87-5.1-1.91-9.51-4.62-13.23-8.13-3.72-3.51-6.67-7.73-8.85-12.67-2.18-4.94-3.27-10.44-3.27-16.5s1.09-11.56,3.27-16.5c2.18-4.94,5.13-9.17,8.85-12.67,3.72-3.51,8.13-6.22,13.23-8.13,5.1-1.91,10.52-2.87,16.26-2.87,5.31,0,10.17,.93,14.59,2.79,4.41,1.86,8.18,4.54,11.32,8.05,3.13,3.51,5.58,7.84,7.33,12.99,1.75,5.15,2.63,11.08,2.63,17.77v5.26h-58.34Zm39.21-14.35c-.11-5.63-1.86-10.07-5.26-13.31-3.4-3.24-8.13-4.86-14.19-4.86-5.74,0-10.28,1.65-13.63,4.94-3.35,3.29-5.39,7.71-6.14,13.23h39.21Z"/>
      <path class="cls-1" d="M384.83,31.48h20.88l20.4,53.56h.32l20.56-53.56h19.61l-30.13,76.51h-20.4l-31.24-76.51Z"/>
      <path class="cls-1" d="M518.56,97.47h-.48c-2.77,4.36-6.27,7.52-10.52,9.48-4.25,1.97-8.93,2.95-14.03,2.95-3.51,0-6.93-.48-10.28-1.43-3.35-.96-6.32-2.39-8.93-4.3-2.61-1.91-4.7-4.3-6.3-7.17s-2.39-6.22-2.39-10.04c0-4.14,.74-7.68,2.23-10.6,1.49-2.92,3.48-5.36,5.98-7.33,2.5-1.97,5.39-3.53,8.69-4.7,3.29-1.17,6.72-2.04,10.28-2.63,3.56-.58,7.14-.96,10.76-1.12,3.61-.16,7.01-.24,10.2-.24h4.78v-2.07c0-4.78-1.65-8.37-4.94-10.76-3.29-2.39-7.49-3.59-12.59-3.59-4.04,0-7.81,.72-11.32,2.15s-6.54,3.38-9.09,5.82l-10.04-10.04c4.25-4.36,9.22-7.49,14.9-9.4,5.68-1.91,11.56-2.87,17.61-2.87,5.42,0,9.99,.61,13.71,1.83,3.72,1.22,6.8,2.79,9.25,4.7,2.44,1.91,4.33,4.12,5.66,6.62,1.33,2.5,2.29,5.02,2.87,7.57,.58,2.55,.93,5.02,1.04,7.41,.11,2.39,.16,4.49,.16,6.3v43.99h-17.22v-10.52Zm-1.12-23.75h-3.98c-2.66,0-5.63,.11-8.92,.32-3.29,.21-6.4,.72-9.32,1.51-2.93,.8-5.4,1.97-7.41,3.51-2.02,1.54-3.03,3.69-3.03,6.46,0,1.81,.4,3.32,1.2,4.54,.8,1.22,1.83,2.26,3.11,3.11,1.28,.85,2.71,1.46,4.3,1.83,1.6,.37,3.19,.56,4.78,.56,6.59,0,11.45-1.57,14.59-4.7,3.13-3.13,4.7-7.41,4.7-12.83v-4.3Z"/>
    </g>
  </g>

  <!-- Tagline -->
  <text x="600" y="420" text-anchor="middle" font-family="system-ui, -apple-system, sans-serif" font-size="24" font-weight="400" fill="#888888" letter-spacing="0.15em">SOFTWARE DEVELOPMENT</text>
</svg>
