<?xml version="1.0" encoding="utf-8"?>
<!-- Generator: Adobe Illustrator 24.0.3, SVG Export Plug-In . SVG Version: 6.00 Build 0)  -->
<svg version="1.1" id="Ebene_1" xmlns="http://www.w3.org/2000/svg" xmlns:xlink="http://www.w3.org/1999/xlink" x="0px" y="0px"
	 viewBox="0 0 172.6 70.3" style="enable-background:new 0 0 172.6 70.3;" xml:space="preserve">
<style type="text/css">
	.st0{fill-rule:evenodd;clip-rule:evenodd;fill:#fff;}
	.st1{fill:#fff;}
</style>
<g>
	<path class="st0" d="M89.9,60.9l-3.2-9.2l-3.4,9.2H89.9L89.9,60.9z M85.2,48.6h3.2L96,69.5h-3.1l-2.1-6.3h-8.3l-2.3,6.3h-2.9
		L85.2,48.6L85.2,48.6z"/>
	<polygon class="st1" points="111.2,48.6 111.2,51.1 104.1,51.1 104.1,69.5 101.2,69.5 101.2,51.1 94.2,51.1 94.2,48.6 111.2,48.6 	
		"/>
	<path class="st0" d="M123,58.2c1.3,0,2.4-0.3,3.1-0.8c0.8-0.5,1.2-1.5,1.2-2.9c0-1.5-0.5-2.5-1.6-3c-0.6-0.3-1.4-0.4-2.3-0.4h-6.9
		v7.2H123L123,58.2z M113.6,48.6h9.7c1.6,0,2.9,0.2,3.9,0.7c2,0.9,2.9,2.5,2.9,4.9c0,1.3-0.3,2.3-0.8,3.1c-0.5,0.8-1.2,1.4-2.2,1.9
		c0.8,0.3,1.4,0.8,1.8,1.3c0.4,0.5,0.7,1.4,0.7,2.6l0.1,2.8c0,0.8,0.1,1.4,0.2,1.8c0.2,0.7,0.5,1.1,0.9,1.3v0.5h-3.5
		c-0.1-0.2-0.2-0.4-0.2-0.7c-0.1-0.3-0.1-0.8-0.1-1.7l-0.2-3.5c-0.1-1.4-0.6-2.3-1.5-2.8c-0.5-0.3-1.4-0.4-2.6-0.4h-6.5v9h-2.8V48.6
		L113.6,48.6z"/>
	<path class="st0" d="M151.1,51.6c1.4,1.9,2.1,4.2,2.1,7.1c0,3.1-0.8,5.7-2.4,7.8c-1.9,2.4-4.5,3.6-8,3.6c-3.2,0-5.8-1.1-7.6-3.2
		c-1.6-2.1-2.5-4.6-2.5-7.8c0-2.8,0.7-5.3,2.1-7.3c1.8-2.6,4.5-3.9,8-3.9C146.5,48,149.3,49.2,151.1,51.6L151.1,51.6z M148.5,64.9
		c1.1-1.8,1.7-3.9,1.7-6.2c0-2.5-0.6-4.4-1.9-5.9c-1.3-1.5-3-2.3-5.3-2.3c-2.2,0-3.9,0.7-5.3,2.2c-1.4,1.5-2.1,3.7-2.1,6.6
		c0,2.3,0.6,4.3,1.8,5.9c1.2,1.6,3.1,2.4,5.7,2.4C145.6,67.6,147.4,66.7,148.5,64.9L148.5,64.9z"/>
	<polygon class="st1" points="156,48.6 159.4,48.6 169.9,65.5 169.9,48.6 172.6,48.6 172.6,69.5 169.4,69.5 158.7,52.6 158.7,69.5 
		156,69.5 156,48.6 	"/>
	<path class="st0" d="M28.6,2.6c8.8,0,16,7.2,16,16v48.7H24.4V25.1c0-3.2-2.6-5.8-5.8-5.8H3V2.6H28.6L28.6,2.6z M37.6,2.7h29.8v17.2
		H46.9v-2.2C46.9,11.1,43.1,5.4,37.6,2.7L37.6,2.7z M8.8,30.7h13.5v36.7H3V36.4C3,33.2,5.6,30.7,8.8,30.7L8.8,30.7z"/>
	<path class="st1" d="M70.3,0v70.3H0V0H70.3L70.3,0z M69.4,0.9H0.9v68.5h68.5V0.9L69.4,0.9z"/>
</g>
</svg>
