<?xml version="1.0" encoding="UTF-8"?>
<svg xmlns="http://www.w3.org/2000/svg" xmlns:xlink="http://www.w3.org/1999/xlink" width="320" height="55"
     viewBox="0 0 320 55">
    <defs>
        <clipPath id="clip-logo-white">
            <rect width="320" height="55"></rect>
        </clipPath>
    </defs>
    <g id="logo-white" clip-path="url(#clip-logo-white)">
        <path id="Union_5"
              d="M166.81,54.472V13.619h6.81v1.826a13.618,13.618,0,1,1,0,23.575V54.472Zm6.816-27.24a6.806,6.806,0,1,0,6.8-6.81A6.806,6.806,0,0,0,173.626,27.232ZM98.8,50.982a11.9,11.9,0,0,1-3.488-8.43h6.81a5.107,5.107,0,1,0,10.213,0V39.7A11.914,11.914,0,0,1,95.317,28.937V13.615h6.81V28.937a5.107,5.107,0,0,0,10.213,0V13.613h6.81V42.552A11.918,11.918,0,0,1,98.8,50.982ZM0,27.232a27.236,27.236,0,1,1,27.232,27.24A27.23,27.23,0,0,1,0,27.232ZM27.238,44.257a11.346,11.346,0,0,0,0-22.691v4.862a6.482,6.482,0,1,1-6.485,6.485H15.884A11.351,11.351,0,0,0,27.238,44.257ZM15.884,21.565A11.352,11.352,0,0,0,27.238,32.913V28.049a6.484,6.484,0,1,1,6.479-6.483h4.865a11.349,11.349,0,1,0-22.7,0Zm256.462,5.669a13.616,13.616,0,1,1,26.992,2.552H279.653a6.8,6.8,0,0,0,6.315,4.257,6.726,6.726,0,0,0,4.489-1.705h8.132a13.617,13.617,0,0,1-26.242-5.1Zm7.307-2.552h12.616a6.8,6.8,0,0,0-12.616,0Zm-82.2,2.552a13.616,13.616,0,1,1,13.619,13.619A13.619,13.619,0,0,1,197.452,27.234Zm6.81,0a6.81,6.81,0,1,0,6.81-6.81A6.812,6.812,0,0,0,204.261,27.234Zm98.716,13.617V13.619h6.81v1.826a13.523,13.523,0,0,1,6.814-1.83,13.782,13.782,0,0,1,3.4.426v7.3a6.806,6.806,0,0,0-10.209,5.9V40.851ZM248.6,37.363a1.061,1.061,0,0,1-.084-.089,11.919,11.919,0,0,1-20.435-8.337V13.615h6.81V28.937a5.108,5.108,0,0,0,10.215,0V13.615h6.81V28.937a5.108,5.108,0,0,0,10.215,0V13.615h6.81V28.937a11.916,11.916,0,0,1-20.34,8.426ZM156.6,40.851V25.535a5.107,5.107,0,0,0-10.213-.117V40.851h-6.805v0h-.006V25.535a.7.7,0,0,1,.006-.117,5.108,5.108,0,0,0-10.215.117V40.851h-6.807V25.535A11.916,11.916,0,0,1,142.893,17.1c.028.032.061.061.084.093A11.911,11.911,0,0,1,163.4,25.535V40.851Zm-10.213,0V25.419a1.054,1.054,0,0,1,0,.117V40.851Zm-72.47-1.176a10.376,10.376,0,0,1-4.277-3.226,7.2,7.2,0,0,1-1.549-4.43h7.08a3.582,3.582,0,0,0,1.474,2.861,6.1,6.1,0,0,0,3.67,1,5.694,5.694,0,0,0,3.244-.763,2.347,2.347,0,0,0,1.1-2.005A2.251,2.251,0,0,0,83.3,31.083a16.082,16.082,0,0,0-4.355-1.325q-9.978-1.964-9.978-7.959a7.073,7.073,0,0,1,3.088-5.837,13,13,0,0,1,8.078-2.345,14.026,14.026,0,0,1,8.517,2.356,7.274,7.274,0,0,1,3.192,6.116H84.369A3.284,3.284,0,0,0,83.336,19.6a4.565,4.565,0,0,0-3.231-.985,4.665,4.665,0,0,0-2.92.8,2.472,2.472,0,0,0-1.035,2.038,2.141,2.141,0,0,0,1.176,1.882,12.625,12.625,0,0,0,3.968,1.236A34.436,34.436,0,0,1,86,25.754q5.922,2.042,5.919,7.065a6.738,6.738,0,0,1-3.283,5.813,14.834,14.834,0,0,1-8.476,2.219A15.632,15.632,0,0,1,73.913,39.675Z"
              fill="#fff" stroke="rgba(0,0,0,0)" stroke-miterlimit="10" stroke-width="1"></path>
    </g>
</svg>